<?xml version="1.0" encoding="UTF-8" standalone="no"?>
<svg
   width="37"
   height="37"
   viewBox="0 0 37 37"
   fill="none"
   version="1.1"
   id="svg4"
   sodipodi:docname="Facebook Icon.svg"
   inkscape:version="1.1.1 (3bf5ae0d25, 2021-09-20)"
   xmlns:inkscape="http://www.inkscape.org/namespaces/inkscape"
   xmlns:sodipodi="http://sodipodi.sourceforge.net/DTD/sodipodi-0.dtd"
   xmlns="http://www.w3.org/2000/svg"
   xmlns:svg="http://www.w3.org/2000/svg">
  <defs
     id="defs8" />
  <sodipodi:namedview
     id="namedview6"
     pagecolor="#ffffff"
     bordercolor="#666666"
     borderopacity="1.0"
     inkscape:pageshadow="2"
     inkscape:pageopacity="0.0"
     inkscape:pagecheckerboard="0"
     showgrid="false"
     height="37px"
     inkscape:zoom="15.667998"
     inkscape:cx="9.1587964"
     inkscape:cy="20.711006"
     inkscape:window-width="2560"
     inkscape:window-height="1027"
     inkscape:window-x="-8"
     inkscape:window-y="-8"
     inkscape:window-maximized="1"
     inkscape:current-layer="svg4" />
  <path
     d="M 33.0357,0 H 3.96429 C 2.91289,0 1.90456,0.41766204 1.16111,1.1611154 0.417665,1.9045586 0,2.9128917 0,3.9642857 V 33.035714 C 0,34.087118 0.417665,35.095431 1.16111,35.838854 1.90456,36.582378 2.91289,37 3.96429,37 H 15.2997 V 24.420805 H 10.0965 V 18.5 H 15.2997 V 13.987309 C 15.2997,8.854397 18.3555,6.0191097 23.0358,6.0191097 25.2773,6.0191097 27.6212,6.4188405 27.6212,6.4188405 V 11.456811 H 25.0386 C 22.494,11.456811 21.7003,13.03588 21.7003,14.655423 V 18.5 H 27.3808 L 26.4723,24.420805 H 21.7003 V 37 H 33.0357 C 34.0871,37 35.0954,36.582378 35.8389,35.838854 36.5823,35.095431 37,34.087118 37,33.035714 V 3.9642857 C 37,2.9128917 36.5823,1.9045586 35.8389,1.1611154 35.0954,0.41766204 34.0871,0 33.0357,0 Z"
     fill="#c4c4c4"
     id="path2"
     style="stroke-width:1.0034" />
</svg>
