<?xml version="1.0" encoding="UTF-8" standalone="no"?>
<svg
   width="37"
   height="37"
   viewBox="0 0 37 37"
   fill="none"
   version="1.1"
   id="svg4"
   sodipodi:docname="Google Plus Icon.svg"
   inkscape:version="1.1.1 (3bf5ae0d25, 2021-09-20)"
   xmlns:inkscape="http://www.inkscape.org/namespaces/inkscape"
   xmlns:sodipodi="http://sodipodi.sourceforge.net/DTD/sodipodi-0.dtd"
   xmlns="http://www.w3.org/2000/svg"
   xmlns:svg="http://www.w3.org/2000/svg">
  <defs
     id="defs8" />
  <sodipodi:namedview
     id="namedview6"
     pagecolor="#ffffff"
     bordercolor="#666666"
     borderopacity="1.0"
     inkscape:pageshadow="2"
     inkscape:pageopacity="0.0"
     inkscape:pagecheckerboard="0"
     showgrid="false"
     width="36px"
     inkscape:zoom="22.157895"
     inkscape:cx="14.41924"
     inkscape:cy="19.022565"
     inkscape:window-width="2560"
     inkscape:window-height="1027"
     inkscape:window-x="-8"
     inkscape:window-y="-8"
     inkscape:window-maximized="1"
     inkscape:current-layer="svg4" />
  <path
     d="M 33.0357,0 H 3.96429 C 1.77567,0 0,1.7756677 0,3.9642856 V 33.035714 C 0,35.224302 1.77567,37 3.96429,37 H 33.0357 C 35.2243,37 37,35.224302 37,33.035714 V 3.9642856 C 37,1.7756677 35.2243,0 33.0357,0 Z M 13.5446,26.758903 C 8.97746,26.758903 5.28571,23.067159 5.28571,18.5 5.28571,13.932841 8.97746,10.241097 13.5446,10.241097 15.7746,10.241097 17.6328,11.050465 19.0781,12.404917 L 16.84,14.560482 C 16.2288,13.97412 15.1634,13.288588 13.5529,13.288588 10.7366,13.288588 8.44062,15.617624 8.44062,18.508256 8.44062,21.390631 10.7366,23.727924 13.5529,23.727924 16.8234,23.727924 18.0458,21.37412 18.244,20.168272 H 13.5446 V 17.327276 H 21.3411 C 21.4237,17.740166 21.4732,18.161412 21.4732,18.698239 21.4732,23.414103 18.31,26.758903 13.5446,26.758903 Z M 31.7143,20.003156 H 29.3192 V 22.398239 H 26.9076 V 20.003156 H 24.5125 V 17.591562 H 26.9076 V 15.196479 H 29.3192 V 17.591562 H 31.7143 Z"
     fill="#c4c4c4"
     id="path2"
     style="stroke-width:1.0034" />
</svg>
