<?xml version="1.0" encoding="UTF-8" standalone="no"?>
<svg
   width="37"
   height="37"
   viewBox="0 0 37 37"
   fill="none"
   version="1.1"
   id="svg4"
   sodipodi:docname="VK Icon.svg"
   inkscape:version="1.1.1 (3bf5ae0d25, 2021-09-20)"
   xmlns:inkscape="http://www.inkscape.org/namespaces/inkscape"
   xmlns:sodipodi="http://sodipodi.sourceforge.net/DTD/sodipodi-0.dtd"
   xmlns="http://www.w3.org/2000/svg"
   xmlns:svg="http://www.w3.org/2000/svg">
  <defs
     id="defs8">
    <inkscape:path-effect
       effect="powerclip"
       id="path-effect3635"
       is_visible="true"
       lpeversion="1"
       inverse="true"
       flatten="false"
       hide_clip="false"
       message="Use fill-rule evenodd on &lt;b&gt;fill and stroke&lt;/b&gt; dialog if no flatten result after convert clip to paths." />
    <clipPath
       clipPathUnits="userSpaceOnUse"
       id="clipPath3631">
      <path
         d="M 22.289704,25.022353 C 22.475104,24.397353 22.289704,23.937353 21.397504,23.937353 H 18.445204 C 17.693404,23.937353 17.347504,24.332353 17.162104,24.772353 17.162104,24.772353 15.658404,28.427353 13.533204,30.797353 12.846504,31.482353 12.530704,31.702353 12.154804,31.702353 11.969404,31.702353 11.683704,31.482353 11.683704,30.857353 V 25.022353 C 11.683704,24.272353 11.473104,23.937353 10.851604,23.937353 H 6.2103043 C 5.7391043,23.937353 5.4584143,24.287353 5.4584143,24.612353 5.4584143,25.322353 6.5210043,25.487353 6.6313043,27.487353 V 31.827353 C 6.6313043,32.777353 6.4609043,32.952353 6.0849043,32.952353 5.0824943,32.952353 2.6465243,29.282353 1.2029843,25.082353 0.9122743,24.267353 0.6265744,23.937353 -0.1302756,23.937353 H -3.0825159 C -3.9245779,23.937353 -4.0949959,24.332353 -4.0949959,24.772353 -4.0949959,25.552353 -3.0925359,29.427353 0.5714344,34.547353 3.0124243,38.042353 6.4508043,39.937353 9.5785043,39.937353 11.458104,39.937353 11.688704,39.517353 11.688704,38.792353 11.688704,35.452353 11.518304,35.137353 12.460604,35.137353 12.896604,35.137353 13.648504,35.357353 15.402804,37.042353 17.407704,39.042353 17.738504,39.937353 18.861304,39.937353 H 21.813504 C 22.655604,39.937353 23.081604,39.517353 22.836004,38.687353 22.274604,36.942353 18.480304,33.352353 18.309904,33.112353 17.873804,32.552353 17.999104,32.302353 18.309904,31.802353 18.314904,31.797353 21.918704,26.737353 22.289704,25.022353 Z"
         fill="#293a43"
         id="path3633"
         style="display:none" />
      <path
         id="lpe_path-effect3635"
         class="powerclip"
         d="M -14.094991,8.437353 H 32.905009 V 55.437353 H -14.094991 Z M 22.289704,25.022353 C 22.475104,24.397353 22.289704,23.937353 21.397504,23.937353 H 18.445204 C 17.693404,23.937353 17.347504,24.332353 17.162104,24.772353 17.162104,24.772353 15.658404,28.427353 13.533204,30.797353 12.846504,31.482353 12.530704,31.702353 12.154804,31.702353 11.969404,31.702353 11.683704,31.482353 11.683704,30.857353 V 25.022353 C 11.683704,24.272353 11.473104,23.937353 10.851604,23.937353 H 6.2103043 C 5.7391043,23.937353 5.4584143,24.287353 5.4584143,24.612353 5.4584143,25.322353 6.5210043,25.487353 6.6313043,27.487353 V 31.827353 C 6.6313043,32.777353 6.4609043,32.952353 6.0849043,32.952353 5.0824943,32.952353 2.6465243,29.282353 1.2029843,25.082353 0.9122743,24.267353 0.6265744,23.937353 -0.1302756,23.937353 H -3.0825159 C -3.9245779,23.937353 -4.0949959,24.332353 -4.0949959,24.772353 -4.0949959,25.552353 -3.0925359,29.427353 0.5714344,34.547353 3.0124243,38.042353 6.4508043,39.937353 9.5785043,39.937353 11.458104,39.937353 11.688704,39.517353 11.688704,38.792353 11.688704,35.452353 11.518304,35.137353 12.460604,35.137353 12.896604,35.137353 13.648504,35.357353 15.402804,37.042353 17.407704,39.042353 17.738504,39.937353 18.861304,39.937353 H 21.813504 C 22.655604,39.937353 23.081604,39.517353 22.836004,38.687353 22.274604,36.942353 18.480304,33.352353 18.309904,33.112353 17.873804,32.552353 17.999104,32.302353 18.309904,31.802353 18.314904,31.797353 21.918704,26.737353 22.289704,25.022353 Z" />
    </clipPath>
  </defs>
  <sodipodi:namedview
     id="namedview6"
     pagecolor="#ffffff"
     bordercolor="#666666"
     borderopacity="1.0"
     inkscape:pageshadow="2"
     inkscape:pageopacity="0.0"
     inkscape:pagecheckerboard="0"
     showgrid="false"
     width="28px"
     inkscape:zoom="14.024285"
     inkscape:cx="14.581849"
     inkscape:cy="13.048794"
     inkscape:window-width="1284"
     inkscape:window-height="1018"
     inkscape:window-x="1268"
     inkscape:window-y="0"
     inkscape:window-maximized="0"
     inkscape:current-layer="svg4" />
  <g
     style="fill:none"
     id="g2923"
     transform="translate(9.0949907,-13.437353)"
     clip-path="url(#clipPath3631)"
     inkscape:path-effect="#path-effect3635">
    <path
       d="M 23.940709,13.437353 H -5.1307007 C -6.1821007,13.437353 -7.1904307,13.855015 -7.9338807,14.598468 -8.6773257,15.341912 -9.0949907,16.350245 -9.0949907,17.401639 V 46.473067 C -9.0949907,47.524471 -8.6773257,48.532784 -7.9338807,49.276207 -7.1904307,50.019731 -6.1821007,50.437353 -5.1307007,50.437353 30.97871,50.437353 -13.731781,50.437353 23.940709,50.437353 24.992109,50.437353 26.000409,50.019731 26.743909,49.276207 27.487309,48.532784 27.905009,47.524471 27.905009,46.473067 V 17.401639 C 27.905009,16.350245 27.487309,15.341912 26.743909,14.598468 26.000409,13.855015 24.992109,13.437353 23.940709,13.437353 Z"
       fill="#c4c4c4"
       id="path2-7"
       style="stroke-width:1.0034"
       sodipodi:nodetypes="ssssscccssscs"
       inkscape:original-d="M 23.940709,13.437353 H -5.1307007 C -6.1821007,13.437353 -7.1904307,13.855015 -7.9338807,14.598468 -8.6773257,15.341912 -9.0949907,16.350245 -9.0949907,17.401639 V 46.473067 C -9.0949907,47.524471 -8.6773257,48.532784 -7.9338807,49.276207 -7.1904307,50.019731 -6.1821007,50.437353 -5.1307007,50.437353 30.97871,50.437353 -13.731781,50.437353 23.940709,50.437353 24.992109,50.437353 26.000409,50.019731 26.743909,49.276207 27.487309,48.532784 27.905009,47.524471 27.905009,46.473067 V 17.401639 C 27.905009,16.350245 27.487309,15.341912 26.743909,14.598468 26.000409,13.855015 24.992109,13.437353 23.940709,13.437353 Z" />
  </g>
</svg>
